<svg width="125" height="110" viewBox="0 0 125 110" fill="none" xmlns="http://www.w3.org/2000/svg">
<mask id="mask0_50_8" style="mask-type:alpha" maskUnits="userSpaceOnUse" x="0" y="0" width="125" height="110">
<path d="M35.5073 43.3877L34.6152 46.3355C33.5448 49.9282 30.3334 52.4154 26.5868 52.4154C20.9669 52.4154 16.9527 46.7961 18.5584 41.2689L19.4505 38.3211C20.5209 34.7284 23.7323 32.2412 27.4789 32.2412C33.0987 32.2412 37.1129 37.8605 35.5073 43.3877Z" fill="black"/>
<path d="M124.264 42.375C124.264 65.7734 105.888 84.7501 83.23 84.7501H52.0977L47.3698 105.937C46.9238 108.056 45.0505 109.53 42.9988 109.53H40.8579C33.7215 109.53 28.3693 102.621 29.9749 95.436L32.3835 84.7501L35.5948 70.1952C36.3085 66.7868 39.2522 64.3917 42.5528 64.3917H71.0982C73.6851 64.3917 76.0044 62.7335 76.8073 60.2463C76.9857 59.6014 77.0749 58.9566 77.0749 58.4039C77.0749 55.1797 74.5772 52.4161 71.2766 52.4161H51.7408C47.013 52.4161 43.1772 48.9155 42.2852 44.5859C42.0176 43.2041 41.9283 41.7302 42.2852 40.2563V40.1642V39.9799C43.3556 35.3739 47.2806 32.1498 51.83 32.1498H78.3238C80.8215 32.1498 83.23 30.5837 84.0328 28.0965C84.2112 27.4517 84.3897 26.8068 84.3897 26.0699C84.3897 22.8457 81.8919 20.0821 78.5914 20.0821H9.81472C3.21363 20.2663 -1.5142 13.6337 0.448296 7.18534C1.69716 2.85571 5.53295 0 9.81472 0H83.23C105.888 0 124.264 18.9766 124.264 42.375Z" fill="black"/>
</mask>
<g mask="url(#mask0_50_8)">
<path d="M-22.0964 146.04V-3.04383H137.001V146.04H-22.0964Z" fill="url(#paint0_radial_50_8)"/>
</g>
<defs>
<radialGradient id="paint0_radial_50_8" cx="0" cy="0" r="1" gradientUnits="userSpaceOnUse" gradientTransform="translate(5.25355 79.5165) rotate(-36.3081) scale(113 103.575)">
<stop stop-color="#85EAFF"/>
<stop offset="0.706211" stop-color="#DADADA"/>
<stop offset="1" stop-color="#FFCB80"/>
</radialGradient>
</defs>
</svg>
